<?xml version="1.0" standalone="no"?>
<!DOCTYPE svg PUBLIC "-//W3C//DTD SVG 20010904//EN"
 "http://www.w3.org/TR/2001/REC-SVG-20010904/DTD/svg10.dtd">
<svg version="1.0" xmlns="http://www.w3.org/2000/svg"
 width="1500.000000pt" height="1500.000000pt" viewBox="0 0 1500.000000 1500.000000"
 preserveAspectRatio="xMidYMid meet">
<metadata>
Created by potrace 1.14, written by Peter Selinger 2001-2017
</metadata>
<g transform="translate(0.000000,1500.000000) scale(0.100000,-0.100000)"
fill="#000000" stroke="none">
<path d="M0 7500 l0 -7500 7500 0 7500 0 0 7500 0 7500 -7500 0 -7500 0 0
-7500z m7975 6340 c401 -19 616 -46 844 -106 114 -31 194 -70 241 -119 l35
-36 -3 -257 c-1 -141 1 -262 5 -267 5 -6 39 -26 77 -45 218 -111 151 -218
-194 -305 -54 -14 -108 -25 -119 -25 -12 0 -21 -3 -21 -6 0 -3 100 -125 222
-272 122 -147 248 -298 280 -337 31 -38 241 -291 465 -561 225 -270 514 -619
644 -775 282 -341 814 -980 2075 -2499 176 -212 484 -582 684 -824 201 -241
400 -482 442 -534 72 -90 80 -97 140 -117 127 -43 216 -101 236 -152 16 -41
75 -541 68 -578 -7 -36 -62 -92 -121 -123 -139 -74 -742 -261 -803 -249 -13 3
-49 -2 -80 -10 -146 -38 -493 -116 -622 -140 -136 -25 -244 -47 -287 -59 l-52
-15 52 -107 c29 -58 195 -394 370 -745 175 -352 329 -667 343 -701 14 -33 53
-95 87 -136 155 -189 237 -344 263 -494 19 -106 7 -168 -49 -266 -24 -41 -54
-100 -66 -130 -13 -30 -29 -62 -37 -71 -8 -8 -15 -33 -15 -55 -1 -31 -3 -27
-9 22 -23 175 -235 453 -565 742 -187 164 -207 179 -191 154 5 -8 2 -10 -9 -6
-9 4 -13 9 -10 12 6 7 -35 52 -48 52 -5 0 -4 -6 2 -13 6 -8 7 -17 3 -21 -4 -4
2 -14 12 -22 11 -8 15 -14 9 -14 -14 0 -30 20 -35 45 -2 15 -11 20 -33 20 -33
1 -55 11 -55 26 0 6 8 6 20 -1 12 -7 26 -7 36 -2 13 7 10 13 -18 33 -45 34
-67 47 -50 28 14 -16 16 -49 2 -49 -5 0 -10 9 -10 21 0 15 -4 19 -16 15 -9 -3
-27 3 -41 14 -14 11 -22 20 -17 21 5 0 0 4 -11 9 -19 7 -19 8 -1 15 10 5 21 3
25 -2 3 -6 17 -14 31 -18 14 -4 -15 23 -65 59 -49 37 -98 73 -107 81 -10 8
-19 11 -22 7 -3 -5 13 -19 35 -32 21 -14 39 -28 39 -33 0 -4 4 -6 9 -3 4 3 19
-6 31 -19 13 -14 21 -25 18 -25 -4 0 -14 -3 -24 -7 -10 -4 -15 -2 -11 4 5 8
-90 80 -144 108 -10 5 -19 14 -19 20 0 6 -12 16 -27 23 -26 11 -77 45 -115 77
-9 7 -19 11 -22 8 -3 -3 -8 2 -12 11 -3 9 -12 16 -20 16 -8 0 -14 4 -14 9 0 5
-8 11 -17 15 -19 6 -54 27 -63 37 -3 3 -12 8 -20 12 -8 4 -31 17 -50 29 -20
13 -53 34 -73 46 -20 13 -37 28 -37 33 0 5 -8 9 -18 9 -10 0 -27 9 -39 19 -11
11 -40 29 -64 41 -24 13 -46 26 -49 29 -3 4 -16 12 -30 19 -44 21 -88 48 -123
75 -19 14 -51 34 -71 43 -20 10 -36 21 -36 26 0 4 -7 8 -15 8 -8 0 -15 5 -15
10 0 6 -6 10 -14 10 -7 0 -19 7 -26 15 -7 8 -21 15 -31 15 -11 0 -19 4 -19 9
0 4 -22 19 -50 32 -27 13 -50 27 -50 31 0 5 -7 8 -14 8 -8 0 -34 13 -58 29
-38 25 -94 57 -217 122 -18 10 -41 24 -50 31 -9 7 -32 22 -51 32 -19 11 -39
25 -43 33 -4 7 -13 13 -18 13 -6 0 -7 -5 -3 -11 10 -16 -29 6 -46 25 -7 9 -20
16 -30 16 -10 0 -23 7 -30 15 -7 8 -17 15 -22 15 -8 0 -19 7 -51 36 -7 6 -18
9 -25 6 -6 -2 -15 3 -18 12 -3 8 -11 13 -18 10 -7 -3 -18 5 -24 18 -6 13 -11
18 -11 11 -1 -16 -38 -4 -46 15 -3 8 0 19 7 24 15 9 6 11 -16 2 -9 -3 -13 -10
-10 -15 3 -5 -8 -6 -23 -3 -23 4 -163 -10 -303 -31 -14 -2 -63 -6 -110 -10
-47 -3 -119 -10 -160 -15 -41 -5 -176 -19 -299 -30 -123 -12 -233 -26 -245
-32 -11 -6 -41 -27 -66 -47 -53 -42 -48 -38 -129 -97 -36 -26 -70 -51 -75 -55
-34 -28 -135 -99 -139 -99 -4 0 -17 -10 -30 -22 -13 -13 -32 -29 -43 -35 -10
-7 -77 -53 -147 -103 -71 -49 -132 -90 -137 -90 -5 0 -17 -11 -28 -25 -11 -14
-22 -25 -26 -25 -5 0 -125 -78 -176 -115 -15 -11 -83 -57 -150 -102 l-123 -82
39 -16 c315 -135 1109 -418 1669 -596 406 -128 907 -265 1335 -364 631 -147
1094 -223 1545 -255 181 -13 416 -13 486 0 30 6 91 12 137 14 74 3 82 1 82
-15 0 -13 -5 -16 -16 -12 -12 4 -15 2 -12 -8 10 -26 -11 -50 -37 -43 -15 4
-25 2 -25 -5 0 -6 11 -11 25 -11 14 0 25 -4 25 -10 0 -5 -4 -10 -10 -10 -15 0
-12 -16 5 -34 18 -17 20 -56 4 -56 -8 0 -8 -5 1 -15 10 -13 9 -15 -9 -15 -11
0 -21 -4 -21 -10 0 -13 12 -13 44 0 17 6 26 6 26 0 0 -6 5 -10 10 -10 6 0 10
9 10 20 0 11 5 20 10 20 6 0 10 -9 10 -20 0 -11 5 -20 10 -20 14 0 12 21 -4
39 -12 14 -10 19 10 39 l24 23 0 -23 c0 -121 -107 -215 -302 -266 -101 -26
-110 -27 -398 -26 -298 0 -318 2 -717 54 -163 21 -646 112 -828 155 -33 8
-100 23 -150 35 -239 56 -344 82 -385 94 -25 8 -92 26 -150 41 -259 67 -845
243 -1165 350 -342 115 -607 206 -695 240 -19 7 -66 25 -105 38 -121 43 -299
109 -330 122 -16 7 -136 55 -265 105 -129 51 -248 98 -265 105 -96 42 -107 41
-194 -11 -30 -18 -59 -30 -64 -27 -6 3 -7 1 -3 -5 4 -7 1 -12 -9 -12 -10 0
-13 -5 -9 -12 5 -7 3 -8 -5 -4 -7 5 -18 1 -24 -7 -7 -8 -41 -30 -77 -48 -36
-19 -67 -36 -70 -39 -5 -5 -27 -18 -75 -44 -11 -6 -28 -18 -39 -26 -10 -8 -20
-14 -22 -12 -11 6 -24 1 -19 -8 3 -5 -1 -10 -10 -10 -22 0 -73 -27 -115 -61
-19 -16 -42 -29 -51 -29 -21 0 -69 -24 -96 -49 -11 -11 -23 -17 -27 -14 -3 3
-18 -3 -33 -13 -15 -10 -32 -19 -38 -20 -5 -1 -39 -19 -75 -39 -36 -20 -94
-52 -130 -70 -158 -80 -199 -103 -192 -110 4 -5 2 -5 -4 -2 -12 7 -135 -49
-146 -67 -4 -6 -8 -8 -8 -4 0 9 -144 -62 -148 -74 -2 -4 -7 -6 -11 -4 -4 3
-81 -28 -172 -68 -90 -40 -229 -99 -309 -130 -80 -32 -154 -62 -165 -67 -78
-36 -420 -148 -565 -184 -266 -68 -526 -86 -635 -46 -31 12 -61 18 -67 15 -7
-5 -8 -2 -3 6 6 10 3 12 -13 8 -12 -4 -20 -2 -16 3 3 5 2 14 -2 21 -5 7 -11 5
-21 -8 -13 -18 -14 -17 -8 9 8 31 -1 35 -22 10 -14 -17 -14 -17 -9 1 4 13 2
17 -7 13 -16 -6 -51 29 -38 38 5 3 11 -2 15 -10 6 -17 46 -21 46 -4 0 6 -6 9
-14 6 -15 -6 -44 38 -33 50 4 3 7 -1 7 -10 0 -10 5 -17 10 -17 7 0 7 6 0 20
-6 11 -18 20 -26 20 -8 0 -13 4 -9 9 3 5 -6 22 -20 37 -26 28 -32 44 -16 44 5
0 12 13 16 30 4 16 13 30 21 30 8 0 14 4 14 10 0 5 -7 7 -15 4 -8 -4 -15 -2
-15 2 0 14 17 36 26 34 4 -1 11 7 15 17 4 10 8 12 8 5 1 -7 6 -10 11 -7 6 4 8
10 6 14 -3 4 25 9 62 10 157 5 402 43 562 87 357 100 834 286 1255 488 320
155 366 180 360 196 -5 12 -3 12 6 3 12 -12 118 39 339 162 47 27 107 60 133
74 27 14 60 32 74 40 20 11 23 15 12 23 -11 7 -9 8 5 4 12 -4 51 12 112 46 52
29 94 56 94 60 0 4 -7 5 -15 1 -10 -3 -15 0 -13 8 2 8 -4 13 -14 13 -10 -1
-16 1 -13 5 4 8 -92 55 -275 136 -241 106 -982 474 -978 484 2 5 46 44 98 87
52 43 103 85 112 93 9 8 14 19 11 24 -3 6 -1 7 5 3 13 -8 145 92 137 104 -3 4
2 13 10 20 8 7 15 17 15 22 0 9 -97 -55 -136 -90 -11 -9 -49 -39 -84 -66 -36
-28 -83 -65 -105 -83 -22 -19 -44 -37 -50 -41 -40 -29 -358 -295 -385 -322 -4
-4 -62 -52 -149 -125 -13 -11 -33 -29 -45 -40 -12 -11 -34 -31 -51 -43 -16
-13 -60 -51 -96 -85 -36 -34 -107 -100 -158 -147 -50 -47 -134 -126 -186 -177
-91 -88 -144 -119 -160 -94 -3 6 -11 11 -18 11 -6 0 -3 -6 8 -13 28 -21 9 -40
-21 -21 -26 18 -33 54 -9 54 8 0 15 5 15 10 0 6 -12 10 -27 10 -34 0 -70 20
-38 20 11 0 27 5 35 10 11 7 6 8 -17 4 -29 -6 -33 -4 -33 14 0 26 -16 37 -24
17 -3 -8 -12 -15 -21 -15 -8 0 -15 -4 -15 -10 0 -5 5 -10 12 -10 6 0 8 -3 5
-7 -8 -8 -40 24 -50 50 -3 9 -11 17 -16 17 -17 0 -23 -20 -11 -35 10 -12 9
-15 -4 -15 -9 0 -16 6 -16 14 0 8 -8 17 -17 21 -15 6 -14 9 10 21 23 12 31 13
43 3 9 -7 18 -8 24 -3 5 5 -6 16 -27 26 -28 13 -33 13 -29 2 3 -9 -1 -14 -14
-14 -12 0 -20 7 -20 16 0 9 -7 14 -17 12 -23 -4 -28 -25 -6 -32 11 -3 9 -4 -7
-3 -20 2 -26 10 -35 44 -13 53 -24 64 -22 22 3 -45 -26 -51 -47 -10 -10 19
-12 32 -6 36 6 3 10 -1 10 -10 0 -9 4 -14 10 -10 5 3 7 12 4 20 -7 18 17 56
100 150 118 134 476 497 579 585 20 18 37 36 37 41 0 11 -476 11 -503 0 -13
-4 -82 -160 -223 -501 -224 -541 -263 -629 -294 -648 -18 -11 -20 -10 -20 9 0
11 83 219 184 462 101 243 207 498 235 565 l51 124 -323 -5 c-511 -8 -1241 13
-1657 48 -593 51 -938 125 -1037 223 -39 39 -51 82 -28 98 10 8 14 18 9 26 -4
7 -4 10 0 6 5 -4 20 4 34 18 15 13 30 24 34 24 4 0 5 7 1 16 -5 13 -1 15 18
10 24 -7 24 -7 4 9 -19 16 -19 16 6 10 16 -4 30 -2 33 4 4 6 1 11 -6 11 -7 1
2 7 21 16 19 8 42 12 53 9 13 -5 16 -2 12 8 -4 11 1 13 20 10 14 -3 26 -1 26
5 0 5 16 9 36 7 28 -3 33 -1 24 10 -13 16 27 28 67 19 19 -4 24 -3 15 4 -11 7
-8 10 12 14 15 3 23 1 19 -4 -5 -9 82 -3 97 7 4 3 52 -4 106 -14 359 -69 1420
-131 2237 -131 l357 0 25 56 c14 31 25 59 25 63 0 3 -38 28 -83 55 -103 63
-264 169 -297 197 -19 16 -21 19 -6 15 16 -6 17 -4 6 9 -7 8 -18 15 -25 15 -8
0 -15 3 -17 8 -1 4 -40 32 -85 62 -45 30 -82 58 -83 62 0 11 17 14 305 52 407
55 367 53 425 16 28 -18 52 -31 53 -29 1 2 13 26 25 53 l23 49 -58 -6 c-84 -9
-302 -35 -343 -41 -19 -3 -125 -17 -235 -31 -273 -36 -701 -97 -930 -135 -104
-17 -230 -37 -280 -45 -460 -72 -1083 -206 -1379 -296 -143 -44 -219 -71 -321
-117 -49 -23 -92 -39 -94 -36 -3 3 1 9 9 15 13 7 13 10 1 18 -8 5 -9 11 -3 15
6 4 8 32 6 69 -4 47 -12 243 -15 362 0 6 3 21 7 34 6 21 5 23 -12 17 -11 -4
-15 -4 -9 1 61 53 196 125 315 168 71 25 78 30 135 103 33 42 220 277 415 522
535 672 620 783 614 802 -3 10 8 31 27 52 17 20 27 36 23 36 -5 1 2 7 16 14
14 8 29 12 35 9 5 -4 7 -3 3 1 -4 5 5 19 20 32 l27 25 -50 -25 c-27 -13 -67
-41 -87 -62 -50 -49 -52 -20 -3 34 19 22 32 41 29 45 -3 3 9 30 26 61 18 31
39 89 47 128 18 88 54 148 134 222 71 66 154 108 272 138 l87 23 323 404 c177
223 451 567 609 765 158 199 343 431 411 516 105 132 451 566 912 1145 218
273 632 794 849 1067 540 677 637 800 634 803 -1 2 -32 13 -68 25 -134 45
-230 110 -230 156 0 43 39 84 113 120 35 16 57 34 61 47 4 12 9 128 12 257 3
129 10 247 16 263 6 15 25 40 44 56 139 122 960 205 1699 171z m-7291 -8654
c-21 -15 -30 -14 -19 3 3 6 14 11 23 11 13 0 13 -2 -4 -14z m4806 -199 c0 -2
-15 -14 -32 -27 l-33 -23 24 26 c21 23 41 35 41 24z m-4560 -103 c22 -9 26
-12 10 -9 -14 2 -33 5 -42 5 -10 0 -18 5 -18 10 0 13 7 12 50 -6z m73 -21 c-7
-2 -19 -2 -25 0 -7 3 -2 5 12 5 14 0 19 -2 13 -5z m60 -10 c-7 -2 -21 -2 -30
0 -10 3 -4 5 12 5 17 0 24 -2 18 -5z m2445 -941 c6 -18 -15 -14 -22 4 -4 10
-1 14 6 12 6 -2 14 -10 16 -16z m89 -48 c3 -8 -8 -11 -29 -9 -53 6 -54 7 -28
15 32 10 52 8 57 -6z m73 -74 c0 -5 -4 -10 -10 -10 -5 0 -10 5 -10 10 0 6 5
10 10 10 6 0 10 -4 10 -10z m8520 -55 c14 -16 10 -18 -14 -9 -9 3 -16 10 -16
15 0 14 16 11 30 -6z m-8238 -57 c-12 -12 -25 -18 -29 -14 -4 4 3 16 17 26 32
24 40 16 12 -12z m78 12 c0 -5 -5 -10 -11 -10 -5 0 -7 5 -4 10 3 6 8 10 11 10
2 0 4 -4 4 -10z m8255 -30 c3 -5 1 -10 -4 -10 -6 0 -11 5 -11 10 0 6 2 10 4
10 3 0 8 -4 11 -10z m89 -85 c8 -22 -17 -7 -38 21 l-19 26 26 -17 c14 -9 28
-22 31 -30z m-8504 25 c0 -5 -5 -10 -11 -10 -5 0 -7 5 -4 10 3 6 8 10 11 10 2
0 4 -4 4 -10z m8585 -92 c5 -5 4 -8 -3 -8 -12 0 -62 46 -62 57 0 4 12 -4 28
-18 15 -13 31 -27 37 -31z m-8805 -252 c0 -8 -7 -16 -15 -20 -13 -4 -14 -2 -5
14 13 23 20 26 20 6z m-64 -74 c-15 -15 -15 -15 -4 10 7 15 15 23 17 17 2 -6
-4 -18 -13 -27z m9254 -332 c0 -5 -4 -10 -10 -10 -5 0 -10 5 -10 10 0 6 5 10
10 10 6 0 10 -4 10 -10z m-9483 -42 c-3 -8 -6 -5 -6 6 -1 11 2 17 5 13 3 -3 4
-12 1 -19z m9478 3 c3 -5 1 -12 -5 -16 -5 -3 -10 1 -10 9 0 18 6 21 15 7z
m-35 -61 c0 -11 -4 -20 -10 -20 -5 0 -10 9 -10 20 0 11 5 20 10 20 6 0 10 -9
10 -20z m-9455 0 c3 -5 1 -10 -4 -10 -6 0 -11 5 -11 10 0 6 2 10 4 10 3 0 8
-4 11 -10z m9470 -40 c3 -5 1 -10 -4 -10 -6 0 -11 5 -11 10 0 6 2 10 4 10 3 0
8 -4 11 -10z m-9495 -60 c0 -5 -4 -10 -10 -10 -5 0 -10 5 -10 10 0 6 5 10 10
10 6 0 10 -4 10 -10z m40 -29 c0 -6 -4 -13 -10 -16 -5 -3 -10 1 -10 9 0 9 5
16 10 16 6 0 10 -4 10 -9z"/>
<path d="M6747 13629 c-134 -16 -335 -56 -374 -76 -42 -20 -52 -43 -28 -66 12
-12 22 -14 41 -7 66 25 281 70 384 80 138 14 163 22 158 53 -3 19 -9 22 -53
23 -27 1 -85 -2 -128 -7z"/>
<path d="M7228 13551 c-103 -6 -131 -18 -112 -48 10 -16 46 -17 435 -16 374 1
425 3 434 17 7 11 5 20 -8 33 -16 16 -46 18 -335 19 -174 1 -361 -1 -414 -5z"/>
<path d="M8177 13403 c-4 -3 -7 -11 -7 -17 1 -27 20 -36 91 -42 131 -10 381
-43 468 -63 105 -23 141 -15 113 25 -11 17 -32 22 -215 53 -251 44 -433 61
-450 44z"/>
<path d="M6090 12363 c-161 -202 -395 -496 -519 -652 -540 -678 -1250 -1569
-1916 -2406 -219 -275 -440 -552 -490 -615 -50 -63 -180 -226 -288 -362 -108
-136 -197 -250 -197 -253 0 -3 40 -5 89 -5 l88 0 160 193 c300 362 1287 1552
1478 1782 105 127 256 309 336 405 80 96 298 360 485 585 752 906 1125 1357
1238 1493 65 79 117 144 115 146 -2 2 -56 13 -119 25 -63 12 -127 24 -141 27
-24 5 -47 -22 -319 -363z"/>
<path d="M6671 12586 c-37 -45 -121 -146 -187 -226 -66 -80 -208 -251 -315
-380 -107 -129 -413 -498 -679 -820 -266 -322 -536 -648 -600 -725 -291 -351
-738 -891 -1109 -1339 -96 -116 -257 -310 -357 -431 -500 -602 -474 -569 -451
-577 12 -3 67 -6 122 -7 250 -3 621 -38 909 -87 275 -46 773 -148 900 -185 21
-6 42 -7 46 -2 4 4 54 118 110 253 56 135 495 1188 975 2340 954 2289 929
2229 923 2235 -2 2 -52 10 -112 18 l-108 14 -67 -81z"/>
<path d="M8665 12649 c-22 -4 -57 -8 -77 -8 -21 -1 -38 -5 -38 -10 0 -5 329
-670 731 -1478 401 -807 884 -1777 1071 -2155 l341 -688 51 -14 c61 -18 82
-39 167 -166 34 -52 102 -149 149 -215 76 -107 114 -177 135 -253 8 -27 -20
-161 -42 -210 l-16 -33 106 -213 105 -213 69 -6 c37 -4 127 -7 198 -7 253 0
776 -25 1160 -56 298 -23 613 -66 798 -109 32 -7 57 -9 55 -5 -2 5 -129 161
-283 347 -447 538 -915 1102 -1213 1462 -153 183 -335 404 -407 490 -71 86
-303 365 -515 620 -212 256 -486 586 -610 735 -124 149 -324 390 -445 536
-120 146 -352 425 -515 621 -162 196 -423 509 -578 697 -281 339 -284 342
-320 341 -21 -1 -55 -5 -77 -10z"/>
<path d="M6728 11944 c-158 -379 -388 -932 -511 -1229 -124 -297 -365 -877
-537 -1290 -172 -412 -338 -813 -370 -890 -32 -77 -91 -221 -133 -320 -41 -99
-97 -234 -125 -301 l-50 -121 47 -16 c25 -9 91 -28 146 -42 107 -29 272 -75
370 -105 33 -10 105 -32 160 -48 375 -113 763 -242 1111 -370 l242 -89 6 76
c6 71 150 1739 216 2501 32 367 69 796 150 1740 28 322 62 713 75 869 14 157
24 286 22 287 -1 1 -85 7 -187 13 -102 7 -221 14 -265 18 l-80 5 -287 -688z"/>
<path d="M8395 12623 c-27 -2 -55 -5 -62 -8 -6 -2 418 -864 1053 -2137 585
-1173 1068 -2139 1072 -2147 6 -11 28 -14 87 -12 44 1 81 4 82 5 4 4 -365 750
-1171 2371 -367 737 -733 1474 -813 1638 -138 278 -148 297 -172 295 -14 -1
-48 -3 -76 -5z"/>
<path d="M7868 12603 l-256 -3 -6 -63 c-4 -34 -15 -228 -26 -432 -11 -203 -34
-611 -50 -905 -17 -294 -43 -780 -60 -1080 -16 -300 -37 -660 -45 -800 -8
-140 -21 -381 -30 -535 -13 -242 -48 -862 -85 -1534 -6 -106 -9 -199 -6 -206
2 -7 16 -15 31 -19 22 -6 71 19 289 143 1106 631 2019 1017 2661 1122 l131 22
-1062 2128 c-584 1170 -1065 2137 -1069 2148 -6 19 -13 21 -83 19 -42 -2 -193
-4 -334 -5z"/>
<path d="M7402 9835 c0 -16 2 -22 5 -12 2 9 2 23 0 30 -3 6 -5 -1 -5 -18z"/>
<path d="M7393 9685 c0 -38 2 -53 4 -32 2 20 2 52 0 70 -2 17 -4 1 -4 -38z"/>
<path d="M7372 9438 c-12 -159 -62 -839 -112 -1523 -35 -474 -60 -809 -60
-822 0 -12 38 -38 45 -31 5 4 22 307 120 2038 24 428 28 510 23 510 -2 0 -10
-78 -16 -172z"/>
<path d="M7282 8935 c0 -16 2 -22 5 -12 2 9 2 23 0 30 -3 6 -5 -1 -5 -18z"/>
<path d="M7273 8810 c0 -30 2 -43 4 -27 2 15 2 39 0 55 -2 15 -4 2 -4 -28z"/>
<path d="M7252 8595 c-6 -82 -28 -332 -47 -555 -69 -810 -78 -930 -72 -937 4
-3 9 -4 11 -2 4 4 34 353 55 649 6 80 25 326 42 548 16 222 29 413 27 425 -2
12 -9 -45 -16 -128z"/>
<path d="M10655 7772 c-78 -6 -235 -32 -282 -46 -26 -9 -127 -38 -223 -65 -96
-27 -213 -63 -260 -80 -98 -36 -100 -36 -100 -16 0 18 -4 18 -47 3 -25 -9 -33
-17 -31 -32 3 -21 -38 -47 -95 -61 -22 -6 -25 -4 -20 15 5 20 4 21 -28 7 -20
-8 -34 -21 -34 -31 0 -16 -83 -72 -93 -62 -2 3 -11 -1 -19 -9 -19 -19 -33 -19
-33 0 0 8 5 15 12 15 6 0 8 3 5 6 -8 8 -67 -15 -85 -33 -7 -7 -11 -17 -7 -23
3 -5 -36 -29 -87 -52 -105 -49 -607 -300 -685 -343 -28 -16 -50 -32 -47 -36 2
-5 26 -6 52 -3 65 6 777 31 1252 44 217 6 404 13 415 15 11 2 45 34 75 71 30
37 60 72 65 78 25 28 138 172 153 195 9 14 19 28 22 31 3 3 21 30 40 60 19 30
37 57 40 60 3 3 14 21 24 40 11 19 30 48 42 63 13 15 29 46 35 67 7 22 16 40
22 40 5 0 6 7 3 16 -3 8 -2 13 3 10 9 -6 35 44 26 52 -3 3 -5 3 -5 0 0 -3 -15
-3 -32 1 -18 3 -51 5 -73 3z"/>
<path d="M2860 7556 c0 -2 7 -9 15 -16 13 -11 14 -10 9 4 -5 14 -24 23 -24 12z"/>
<path d="M2923 7553 c9 -2 23 -2 30 0 6 3 -1 5 -18 5 -16 0 -22 -2 -12 -5z"/>
<path d="M2384 7538 c-5 -8 76 0 86 9 2 2 -15 3 -38 2 -24 -2 -46 -7 -48 -11z"/>
<path d="M3105 7540 c-16 -7 -17 -9 -3 -9 9 -1 20 4 23 9 7 11 7 11 -20 0z"/>
<path d="M3168 7533 c6 -2 18 -2 25 0 6 3 1 5 -13 5 -14 0 -19 -2 -12 -5z"/>
<path d="M2473 7522 c-8 -5 -9 -13 -3 -22 17 -26 11 -32 -22 -26 -18 3 -39 7
-45 8 -7 1 -13 6 -13 11 0 6 -3 7 -6 4 -4 -4 -2 -13 4 -20 9 -11 2 -13 -38
-13 -41 0 -52 -4 -70 -27 -12 -15 -28 -27 -36 -27 -8 0 -14 -7 -14 -15 0 -18
14 -19 39 -3 25 15 47 5 55 -25 20 -83 196 -324 347 -477 106 -107 293 -276
451 -409 l87 -72 203 30 c314 47 406 59 729 100 165 21 301 40 303 42 1 2 31
74 66 159 35 85 94 228 132 317 37 90 68 165 68 167 0 3 -7 3 -15 0 -15 -6
-22 11 -7 19 4 2 2 2 -5 1 -7 -2 -15 1 -18 5 -7 12 -55 20 -55 10 0 -5 11 -9
25 -9 16 0 25 -6 25 -15 0 -14 -4 -14 -31 0 -17 9 -38 14 -46 10 -13 -4 -14
-3 -4 9 11 13 7 14 -26 11 -28 -4 -32 -3 -13 3 37 12 5 21 -58 16 -56 -4 -66
2 -29 15 19 7 16 9 -23 15 -25 4 -53 10 -62 12 -14 4 -16 1 -11 -12 4 -12 3
-15 -5 -10 -11 7 -26 11 -82 23 -14 3 -33 14 -43 24 -10 11 -25 18 -35 18 -16
-1 -16 -2 1 -6 27 -7 20 -21 -9 -15 -14 2 -28 11 -31 18 -6 16 -43 19 -43 4 0
-5 -7 -10 -16 -10 -10 0 -14 5 -10 16 4 9 2 13 -5 8 -6 -4 -14 -2 -18 3 -3 6
-19 13 -36 17 -21 5 -26 4 -15 -3 22 -15 5 -24 -19 -11 -12 6 -26 8 -31 5 -5
-3 -18 -1 -27 4 -16 9 -15 11 7 12 18 1 13 4 -15 9 -22 5 -50 11 -62 15 -14 5
-23 3 -23 -3 0 -6 12 -12 28 -14 24 -4 25 -5 8 -13 -14 -6 -24 -3 -37 13 -9
12 -32 24 -51 27 -27 4 -30 4 -13 -5 18 -9 17 -10 -5 -5 -14 2 -29 5 -33 5 -5
0 -5 5 -2 10 3 6 -1 10 -10 10 -9 0 -13 -4 -10 -10 3 -6 -5 -10 -19 -10 -13 0
-31 -3 -40 -6 -9 -3 -16 -1 -16 5 0 6 9 11 19 11 11 0 22 4 25 9 3 5 -22 2
-55 -7 -55 -14 -64 -14 -88 1 -20 11 -46 14 -106 11 -54 -2 -75 -1 -65 6 8 5
13 10 10 11 -31 6 -58 4 -72 -5 -9 -5 -21 -7 -25 -3 -4 5 -1 12 7 17 9 6 10
10 3 10 -6 0 -14 -4 -17 -9 -3 -5 -35 -8 -72 -8 -41 0 -61 3 -53 8 10 6 8 9
-8 9 -12 0 -23 -6 -26 -12 -3 -10 -9 -10 -26 0 -11 6 -27 12 -35 12 -8 0 -16
6 -19 13 -3 9 -7 9 -19 0 -8 -7 -42 -15 -74 -17 -32 -2 -44 -1 -25 1 19 2 41
12 50 21 15 15 14 15 -4 7 -11 -5 -36 -10 -55 -10 -19 -1 -42 -5 -50 -8 -8 -4
-69 -8 -135 -11 -66 -3 -147 -8 -180 -11 -43 -5 -56 -3 -45 4 9 6 10 11 3 11
-6 0 -13 7 -15 15 -2 8 -8 11 -15 7z m582 -32 c13 -6 15 -9 5 -9 -8 0 -22 4
-30 9 -18 12 -2 12 25 0z m678 -67 c-7 -2 -19 -2 -25 0 -7 3 -2 5 12 5 14 0
19 -2 13 -5z m682 -123 c-27 -12 -43 -12 -25 0 8 5 22 9 30 9 10 0 8 -3 -5 -9z"/>
<path d="M3113 7513 c9 -2 23 -2 30 0 6 3 -1 5 -18 5 -16 0 -22 -2 -12 -5z"/>
<path d="M3408 7503 c6 -2 18 -2 25 0 6 3 1 5 -13 5 -14 0 -19 -2 -12 -5z"/>
<path d="M2430 7490 c0 -5 7 -10 16 -10 8 0 12 5 9 10 -3 6 -10 10 -16 10 -5
0 -9 -4 -9 -10z"/>
<path d="M3548 7483 c6 -2 18 -2 25 0 6 3 1 5 -13 5 -14 0 -19 -2 -12 -5z"/>
<path d="M3608 7473 c7 -3 16 -2 19 1 4 3 -2 6 -13 5 -11 0 -14 -3 -6 -6z"/>
<path d="M11041 7413 c0 -12 -5 -24 -10 -27 -9 -6 -33 -66 -26 -66 11 0 45 76
42 94 -4 21 -4 21 -6 -1z"/>
<path d="M4240 7349 c0 -7 89 -23 96 -17 2 2 -19 9 -46 14 -28 6 -50 7 -50 3z"/>
<path d="M11060 7278 c-44 -79 -101 -173 -117 -193 -39 -47 -53 -70 -53 -81 0
-11 38 -14 200 -14 110 0 200 3 200 6 0 9 -172 354 -179 358 -3 2 -26 -32 -51
-76z"/>
<path d="M1948 7158 c-46 -57 -183 -227 -303 -378 -120 -151 -314 -394 -430
-540 -116 -146 -215 -271 -220 -279 -11 -19 21 -13 165 32 231 72 625 163
1060 247 146 28 281 55 301 60 20 6 46 10 58 10 11 0 21 2 21 5 0 3 -46 52
-103 108 -141 141 -317 347 -317 372 0 4 -8 19 -19 33 -73 106 -106 205 -98
306 2 39 8 80 13 90 5 15 4 17 -6 11 -8 -5 -18 -2 -25 9 -11 15 -23 5 -97 -86z"/>
<path d="M10956 7223 c-6 -14 -5 -15 5 -6 7 7 10 15 7 18 -3 3 -9 -2 -12 -12z"/>
<path d="M4741 7170 c-28 -70 -163 -397 -202 -488 -21 -51 -39 -94 -39 -95 0
-2 170 16 378 39 207 23 445 49 527 58 457 48 537 56 615 62 93 7 129 18 95
29 -11 3 -42 15 -70 26 -60 23 -160 57 -310 107 -60 20 -112 39 -115 42 -3 3
-15 7 -27 7 -13 1 -57 14 -99 28 -42 14 -78 24 -81 21 -3 -3 -11 0 -18 7 -6 7
-50 21 -96 32 -46 10 -87 24 -91 29 -4 6 -22 10 -42 10 -19 0 -32 4 -30 8 3 4
-10 8 -29 8 -19 0 -40 7 -48 16 -9 11 -22 14 -41 10 -18 -4 -31 -1 -33 7 -3 6
-24 13 -48 14 -23 1 -66 11 -95 22 -28 10 -50 15 -46 10 3 -5 -4 -9 -15 -9
-11 0 -21 8 -23 18 -2 12 -8 6 -17 -18z"/>
<path d="M4868 7173 c7 -3 16 -2 19 1 4 3 -2 6 -13 5 -11 0 -14 -3 -6 -6z"/>
<path d="M11670 6355 c0 -3 51 -108 114 -233 l114 -228 64 7 c282 30 1379 296
1380 334 0 6 -58 19 -129 30 -70 11 -133 24 -140 28 -29 18 -548 45 -1008 52
-176 3 -337 8 -357 10 -21 3 -38 3 -38 0z"/>
<path d="M10450 6339 c-238 -8 -330 -15 -222 -18 28 0 52 -4 52 -8 0 -9 -166
-179 -319 -327 -56 -54 -100 -100 -99 -101 2 -1 62 -33 133 -70 72 -37 170
-90 220 -118 l90 -50 85 11 c47 6 153 20 235 32 83 11 195 27 250 35 485 67
965 146 965 159 0 6 -51 112 -113 236 l-112 225 -460 1 c-253 1 -570 -3 -705
-7z"/>
<path d="M9194 6291 c5 -7 -6 -11 -31 -11 -77 0 -65 -15 67 -78 71 -34 135
-62 142 -62 10 0 107 90 154 142 3 4 -52 8 -124 10 -72 2 -128 0 -125 -4 7
-12 -46 -9 -69 3 -15 8 -19 8 -14 0z"/>
<path d="M7590 6201 c12 -9 1 -11 -45 -10 -59 2 -286 -9 -291 -14 -1 -1 -12
-178 -23 -392 -12 -215 -23 -403 -24 -418 l-4 -28 56 5 c31 4 171 15 311 26
140 11 282 22 315 25 33 3 107 9 165 15 149 14 212 19 319 26 120 8 121 8 130
23 4 6 19 13 32 15 13 1 24 5 24 9 0 8 37 36 48 37 5 0 5 -5 1 -12 -4 -7 -3
-8 4 -4 6 4 8 14 5 23 -5 13 -2 15 11 10 13 -5 17 -3 13 6 -3 8 3 14 16 15 17
1 19 -1 7 -8 -8 -5 -10 -10 -4 -10 6 0 21 11 34 25 23 24 16 37 -8 13 -6 -6
-14 -9 -18 -5 -10 10 6 27 27 27 10 0 19 5 19 10 0 6 -7 10 -16 10 -8 0 -13 4
-10 8 3 4 23 7 45 6 33 -1 42 2 47 19 6 20 -17 47 -41 47 -6 0 -19 9 -29 21
-11 14 -26 19 -40 17 -18 -4 -22 -1 -19 11 3 12 -4 17 -23 19 -15 1 -38 11
-49 22 -15 14 -28 18 -41 14 -11 -4 -16 -3 -11 2 5 5 -7 14 -25 20 -18 6 -32
17 -30 23 1 6 -5 14 -13 17 -8 3 -12 10 -9 15 3 5 1 9 -5 9 -5 0 -11 -6 -14
-12 -3 -8 -9 -3 -15 12 -6 14 -11 18 -11 10 -1 -19 -51 -21 -51 -1 0 8 6 11
15 7 8 -3 15 -2 15 3 0 10 -45 31 -66 31 -9 0 -22 7 -31 15 -8 9 -28 19 -44
22 -16 3 -29 9 -29 14 0 5 -5 9 -11 9 -6 0 -49 18 -95 40 -47 22 -86 40 -89
40 -5 0 -78 33 -172 77 -42 19 -82 29 -143 33 -47 4 -94 10 -105 14 -16 7 -17
6 -5 -3z m675 -251 c10 -11 14 -20 9 -20 -5 0 -15 9 -22 20 -7 11 -11 20 -9
20 2 0 12 -9 22 -20z m168 -497 c-7 -2 -19 -2 -25 0 -7 3 -2 5 12 5 14 0 19
-2 13 -5z"/>
<path d="M6980 6163 c-259 -21 -226 -24 89 -7 82 4 84 4 68 -14 -9 -10 -15
-21 -12 -23 2 -3 0 -59 -5 -125 -5 -65 -16 -216 -25 -334 -8 -118 -17 -241
-20 -274 l-5 -59 36 6 c20 3 38 8 40 10 3 2 15 186 29 408 21 359 26 405 42
417 21 15 -2 14 -237 -5z"/>
<path d="M7015 6100 c-3 -5 -1 -10 4 -10 6 0 11 5 11 10 0 6 -2 10 -4 10 -3 0
-8 -4 -11 -10z"/>
<path d="M7064 6096 c-3 -9 -12 -16 -18 -16 -8 0 -13 -16 -14 -42 -1 -45 -6
-111 -22 -288 -5 -58 -14 -168 -20 -245 -6 -77 -13 -150 -16 -162 -4 -19 0
-22 21 -21 20 2 25 8 25 28 0 28 35 502 49 655 9 99 7 123 -5 91z"/>
<path d="M6068 6083 c6 -2 18 -2 25 0 6 3 1 5 -13 5 -14 0 -19 -2 -12 -5z"/>
<path d="M5854 6059 c-3 -6 -24 -9 -45 -7 -22 2 -39 0 -39 -5 0 -4 -17 -7 -37
-7 -21 1 -89 -4 -152 -10 -63 -6 -119 -9 -126 -6 -7 2 -17 0 -22 -5 -11 -11
-149 -24 -238 -22 -74 1 -296 -18 -650 -57 -302 -34 -348 -40 -342 -47 3 -2
-6 -32 -20 -65 -21 -54 -23 -62 -9 -70 8 -5 21 -14 28 -22 27 -27 241 -155
589 -354 69 -40 129 -72 132 -72 4 0 62 46 130 103 68 56 149 122 181 147 223
174 270 209 475 361 96 71 170 129 165 130 -5 0 0 4 11 9 19 8 19 9 -2 9 -12
1 -25 -4 -29 -10z"/>
<path d="M5738 6053 c7 -3 16 -2 19 1 4 3 -2 6 -13 5 -11 0 -14 -3 -6 -6z"/>
<path d="M5598 6043 c12 -2 30 -2 40 0 9 3 -1 5 -23 4 -22 0 -30 -2 -17 -4z"/>
<path d="M5488 6033 c6 -2 18 -2 25 0 6 3 1 5 -13 5 -14 0 -19 -2 -12 -5z"/>
<path d="M6935 6010 c-22 -16 -46 -29 -52 -30 -7 0 -13 -5 -13 -10 0 -14 -61
-50 -73 -43 -6 3 -7 1 -4 -4 10 -16 -18 -34 -39 -27 -14 4 -16 3 -5 -4 11 -8
9 -11 -10 -17 -13 -5 -48 -28 -77 -51 -30 -24 -60 -44 -68 -44 -8 0 -14 -4
-14 -8 0 -14 -48 -33 -55 -22 -4 6 -12 10 -18 10 -7 0 -1 -9 13 -20 14 -11 19
-20 11 -20 -7 0 -33 -13 -58 -30 -24 -16 -48 -30 -54 -30 -5 0 -9 -4 -9 -8 0
-5 -12 -15 -27 -23 -16 -8 -58 -35 -94 -61 -36 -27 -74 -48 -84 -48 -18 0 -18
1 1 15 10 8 14 15 8 15 -6 0 -18 -7 -25 -17 -11 -13 -11 -17 -1 -20 15 -6 16
-23 1 -23 -5 0 -31 -16 -56 -35 -25 -19 -50 -35 -54 -35 -17 0 3 28 28 39 14
6 23 14 20 17 -9 9 -117 -70 -112 -82 5 -15 -42 -56 -50 -44 -12 19 -26 10
-20 -12 6 -16 4 -20 -8 -15 -11 4 -14 2 -10 -9 3 -8 1 -14 -3 -12 -5 2 -22 -7
-38 -19 -24 -19 -26 -23 -10 -23 88 0 1035 58 1041 63 5 6 64 679 61 698 -3
15 -8 13 -43 -11z"/>
<path d="M6895 6020 c-3 -5 -2 -10 4 -10 5 0 13 5 16 10 3 6 2 10 -4 10 -5 0
-13 -4 -16 -10z"/>
<path d="M6834 5985 c-10 -8 -14 -15 -8 -15 6 0 17 7 24 15 16 19 9 19 -16 0z"/>
<path d="M13850 5930 c-9 -6 -10 -10 -3 -10 6 0 15 5 18 10 8 12 4 12 -15 0z"/>
<path d="M6605 5820 c-3 -5 1 -10 9 -10 9 0 16 5 16 10 0 6 -4 10 -9 10 -6 0
-13 -4 -16 -10z"/>
<path d="M8710 5750 c8 -5 20 -10 25 -10 6 0 3 5 -5 10 -8 5 -19 10 -25 10 -5
0 -3 -5 5 -10z"/>
<path d="M6420 5689 c0 -5 5 -7 10 -4 6 3 10 8 10 11 0 2 -4 4 -10 4 -5 0 -10
-5 -10 -11z"/>
<path d="M6264 5585 c-10 -8 -14 -15 -8 -15 6 0 17 7 24 15 16 19 9 19 -16 0z"/>
<path d="M6140 5500 c-12 -8 -11 -10 8 -10 12 0 22 5 22 10 0 13 -11 13 -30 0z"/>
<path d="M8518 5453 c7 -3 16 -2 19 1 4 3 -2 6 -13 5 -11 0 -14 -3 -6 -6z"/>
<path d="M11795 5385 c-104 -19 -320 -52 -480 -76 -159 -23 -292 -46 -293 -51
-2 -5 -11 -3 -20 4 -15 11 -15 10 -2 -4 8 -9 65 -46 125 -83 194 -119 222
-137 514 -330 439 -291 852 -608 1081 -831 46 -46 86 -81 89 -79 2 3 -162 338
-364 745 l-369 740 -46 -1 c-25 -1 -130 -16 -235 -34z"/>
<path d="M5991 5384 c0 -11 3 -14 6 -6 3 7 2 16 -1 19 -3 4 -6 -2 -5 -13z"/>
<path d="M3946 5260 c-9 -22 -16 -43 -16 -45 0 -3 38 -5 85 -5 47 0 85 3 85 8
0 4 -31 24 -69 44 l-69 38 -16 -40z"/>
<path d="M7368 4883 c7 -3 16 -2 19 1 4 3 -2 6 -13 5 -11 0 -14 -3 -6 -6z"/>
<path d="M7180 4859 c0 -13 4 -18 13 -13 9 6 9 5 0 -7 -16 -19 -21 -63 -28
-232 -4 -98 -3 -137 5 -132 5 3 8 10 5 15 -3 4 -1 19 4 32 10 23 10 23 10 1 1
-16 6 -21 16 -17 8 4 15 12 15 19 0 17 22 34 48 38 26 4 40 16 56 49 6 12 18
23 26 23 8 0 20 4 27 8 6 4 19 4 30 1 17 -5 17 -5 0 6 -9 6 -26 8 -37 5 -14
-4 -20 -2 -20 8 0 10 7 13 20 10 13 -3 20 0 20 8 0 10 3 10 12 1 14 -14 38 2
38 26 0 8 8 24 18 35 16 19 16 20 0 14 -15 -5 -18 0 -18 28 0 19 5 35 10 35 6
0 10 -4 10 -10 0 -5 18 -10 40 -10 22 0 40 -4 40 -10 0 -5 -4 -10 -10 -10 -5
0 -10 -4 -10 -10 0 -5 8 -10 18 -10 14 0 15 -2 2 -10 -8 -5 -10 -10 -5 -10 20
0 30 15 31 45 1 38 6 58 19 67 14 11 -42 9 -92 -2 -27 -6 -50 -6 -65 0 -21 9
-21 10 7 7 17 -2 24 -2 18 0 -7 3 -13 8 -13 12 0 5 -11 6 -25 3 -14 -2 -23 -8
-20 -12 3 -5 -12 -3 -32 3 -28 9 -37 9 -41 -1 -2 -7 -9 -9 -15 -5 -6 3 -36 6
-66 6 -49 -1 -52 0 -21 7 l35 7 -37 2 c-32 1 -38 -2 -38 -20z m184 -8 c4 -5
-3 -7 -14 -4 -23 6 -26 13 -6 13 8 0 17 -4 20 -9z m176 -20 c0 -6 -4 -13 -10
-16 -5 -3 -10 1 -10 9 0 9 5 16 10 16 6 0 10 -4 10 -9z m-236 -230 c3 -5 0
-11 -7 -14 -8 -3 -14 1 -14 9 0 16 13 19 21 5z m-34 -15 c0 -2 -9 -6 -20 -9
-11 -3 -20 -1 -20 4 0 5 9 9 20 9 11 0 20 -2 20 -4z"/>
<path d="M7488 4873 c6 -2 18 -2 25 0 6 3 1 5 -13 5 -14 0 -19 -2 -12 -5z"/>
<path d="M7563 4873 c9 -2 23 -2 30 0 6 3 -1 5 -18 5 -16 0 -22 -2 -12 -5z"/>
<path d="M6965 4860 c-4 -7 -18 -9 -32 -5 -14 3 -105 1 -202 -4 -97 -6 -282
-15 -411 -21 -284 -12 -403 -19 -407 -24 -4 -4 315 -155 487 -231 47 -20 108
-48 135 -60 28 -13 70 -31 95 -41 25 -9 50 -20 55 -24 6 -5 48 -24 95 -43 47
-19 99 -42 115 -51 32 -17 59 -21 52 -8 -3 4 -1 48 3 97 14 151 31 418 26 422
-2 2 -7 -1 -11 -7z m-41 -496 c3 -8 2 -12 -4 -9 -6 3 -10 10 -10 16 0 14 7 11
14 -7z"/>
<path d="M7036 4838 c-2 -18 -10 -107 -16 -198 -6 -91 -13 -192 -16 -225 -2
-33 -2 -54 2 -47 3 6 12 12 19 12 8 0 17 4 20 10 3 6 -1 7 -9 4 -12 -4 -16 0
-16 16 0 18 3 20 14 11 10 -8 16 -9 21 -1 3 5 11 10 16 10 6 0 7 -4 4 -10 -3
-5 0 -7 7 -5 8 3 15 16 16 28 6 75 22 347 22 375 0 28 -3 32 -27 33 l-28 1 30
8 c28 7 28 8 -12 9 -40 1 -42 -1 -47 -31z m51 -230 c-3 -8 -6 -5 -6 6 -1 11 2
17 5 13 3 -3 4 -12 1 -19z m-8 -162 c-9 -8 -10 -5 -5 14 3 14 7 34 7 45 1 11
4 5 6 -14 3 -19 -1 -39 -8 -45z"/>
<path d="M7603 4833 c1 -14 9 -28 17 -30 13 -4 13 -3 0 6 -13 10 -13 13 3 22
23 13 22 29 -2 29 -15 0 -19 -6 -18 -27z"/>
<path d="M7650 4830 c-9 -6 -10 -10 -3 -10 6 0 15 5 18 10 8 12 4 12 -15 0z"/>
<path d="M7487 4759 c9 -9 6 -16 -11 -30 -22 -17 -45 -65 -25 -53 5 3 9 11 9
19 0 7 13 19 29 26 20 9 27 18 23 31 -2 10 -11 18 -20 18 -12 0 -13 -3 -5 -11z"/>
<path d="M7495 4700 c-3 -6 1 -7 9 -4 18 7 21 14 7 14 -6 0 -13 -4 -16 -10z"/>
<path d="M10725 4700 c3 -5 11 -10 16 -10 6 0 7 5 4 10 -3 6 -11 10 -16 10 -6
0 -7 -4 -4 -10z"/>
<path d="M7364 4608 l-19 -21 28 18 c28 18 33 25 19 25 -5 0 -17 -10 -28 -22z"/>
<path d="M7245 4539 c-11 -17 1 -21 15 -4 8 9 8 15 2 15 -6 0 -14 -5 -17 -11z"/>
<path d="M11462 4246 c7 -8 17 -12 22 -9 4 3 2 9 -5 14 -22 13 -31 11 -17 -5z"/>
<path d="M11565 4180 c3 -5 11 -10 16 -10 6 0 7 5 4 10 -3 6 -11 10 -16 10 -6
0 -7 -4 -4 -10z"/>
<path d="M11600 4166 c0 -2 8 -10 18 -17 15 -13 16 -12 3 4 -13 16 -21 21 -21
13z"/>
<path d="M11680 4104 c0 -2 9 -8 20 -14 11 -6 20 -7 20 -2 0 6 -9 12 -20 15
-11 3 -20 3 -20 1z"/>
<path d="M11740 4060 c0 -5 7 -10 16 -10 8 0 12 5 9 10 -3 6 -10 10 -16 10 -5
0 -9 -4 -9 -10z"/>
<path d="M11805 4010 c3 -5 8 -10 11 -10 2 0 4 5 4 10 0 6 -5 10 -11 10 -5 0
-7 -4 -4 -10z"/>
<path d="M3750 3910 c0 -5 5 -10 11 -10 5 0 7 5 4 10 -3 6 -8 10 -11 10 -2 0
-4 -4 -4 -10z"/>
<path d="M3760 3869 c0 -5 5 -7 10 -4 6 3 10 8 10 11 0 2 -4 4 -10 4 -5 0 -10
-5 -10 -11z"/>
<path d="M3740 3840 c0 -5 5 -10 10 -10 6 0 10 5 10 10 0 6 -4 10 -10 10 -5 0
-10 -4 -10 -10z"/>
<path d="M3908 3793 c6 -2 12 -12 12 -21 0 -13 3 -13 12 -4 10 10 10 15 -2 22
-8 5 -19 9 -25 9 -5 0 -4 -3 3 -6z"/>
<path d="M12088 3783 c7 -3 16 -2 19 1 4 3 -2 6 -13 5 -11 0 -14 -3 -6 -6z"/>
<path d="M3986 3764 c-17 -12 -17 -14 -4 -14 9 0 20 5 23 11 11 17 2 18 -19 3z"/>
<path d="M3367 2694 c-3 -5 1 -15 9 -22 16 -14 18 -5 5 17 -5 7 -11 9 -14 5z"/>
<path d="M12710 2691 c0 -10 19 -25 25 -20 1 2 -3 10 -11 17 -8 7 -14 8 -14 3z"/>
<path d="M12865 2680 c3 -5 8 -10 11 -10 2 0 4 5 4 10 0 6 -5 10 -11 10 -5 0
-7 -4 -4 -10z"/>
<path d="M12816 2604 c-17 -12 -17 -14 -4 -14 9 0 20 5 23 11 11 17 2 18 -19
3z"/>
<path d="M12700 2600 c-24 -8 -23 -8 8 -9 17 -1 32 4 32 9 0 11 -5 11 -40 0z"/>
</g>
</svg>
